G75*
%MOIN*%
%OFA0B0*%
%FSLAX24Y24*%
%IPPOS*%
%LPD*%
%AMOC8*
5,1,8,0,0,1.08239X$1,22.5*
%
%ADD10C,0.0060*%
%ADD11C,0.0705*%
%ADD12OC8,0.0520*%
%ADD13C,0.0520*%
%ADD14C,0.0600*%
%ADD15OC8,0.0560*%
%ADD16C,0.0780*%
%ADD17C,0.0594*%
%ADD18C,0.0660*%
%ADD19C,0.0400*%
D10*
X022744Y000830D02*
X022744Y001471D01*
X022957Y001471D02*
X022530Y001471D01*
X023175Y001471D02*
X023602Y000830D01*
X023175Y000830D02*
X023602Y001471D01*
X023602Y013830D02*
X023175Y014471D01*
X022957Y014364D02*
X022957Y014150D01*
X022851Y014044D01*
X022530Y014044D01*
X022744Y014044D02*
X022957Y013830D01*
X023175Y013830D02*
X023602Y014471D01*
X022957Y014364D02*
X022851Y014471D01*
X022530Y014471D01*
X022530Y013830D01*
D11*
X022648Y011284D02*
X023353Y011284D01*
X023353Y009316D02*
X022648Y009316D01*
X022648Y005284D02*
X023353Y005284D01*
X023353Y003316D02*
X022648Y003316D01*
D12*
X017500Y004300D03*
X017500Y005300D03*
X015000Y006300D03*
X015000Y007300D03*
X017500Y007800D03*
X015500Y009300D03*
X015500Y010300D03*
X014500Y010300D03*
X013500Y010300D03*
X012500Y011800D03*
X009500Y011800D03*
X006000Y011300D03*
X006000Y010300D03*
X006000Y005300D03*
X007000Y005300D03*
X015000Y002800D03*
X015000Y001800D03*
X017500Y010800D03*
D13*
X017760Y011800D02*
X017240Y011800D01*
X017240Y012800D02*
X017760Y012800D01*
X017760Y013800D02*
X017240Y013800D01*
X012020Y010300D02*
X011500Y010300D01*
X011500Y009300D02*
X012020Y009300D01*
X012500Y008060D02*
X012500Y007540D01*
X011500Y007540D02*
X011500Y008060D01*
X010500Y008060D02*
X010500Y007540D01*
X009500Y007540D02*
X009500Y008060D01*
X008500Y008060D02*
X008500Y007540D01*
X007500Y007540D02*
X007500Y008060D01*
X007980Y009300D02*
X008500Y009300D01*
X008500Y010300D02*
X007980Y010300D01*
X007980Y006300D02*
X008500Y006300D01*
X008500Y005300D02*
X007980Y005300D01*
X011500Y005300D02*
X012020Y005300D01*
X013240Y005300D02*
X013760Y005300D01*
X013760Y004300D02*
X013240Y004300D01*
X013240Y006300D02*
X013760Y006300D01*
X012020Y006300D02*
X011500Y006300D01*
D14*
X015700Y006200D02*
X016300Y006200D01*
X016300Y005300D02*
X015700Y005300D01*
X015700Y004400D02*
X016300Y004400D01*
X015400Y011500D02*
X015400Y012100D01*
X014500Y012100D02*
X014500Y011500D01*
X013600Y011500D02*
X013600Y012100D01*
D15*
X016000Y001800D03*
X019000Y001800D03*
D16*
X013890Y001300D02*
X013110Y001300D01*
X011890Y003300D02*
X011110Y003300D01*
X009890Y001300D02*
X009110Y001300D01*
X011110Y012800D02*
X011890Y012800D01*
X013110Y014800D02*
X013890Y014800D01*
X009890Y014800D02*
X009110Y014800D01*
D17*
X005000Y009800D03*
X004000Y009800D03*
X004000Y008800D03*
X005000Y008800D03*
X005000Y007800D03*
X004000Y007800D03*
X004000Y006800D03*
X005000Y006800D03*
X005000Y005800D03*
X004000Y005800D03*
D18*
X020000Y006300D03*
X020000Y002300D03*
D19*
X004388Y001271D02*
X004226Y000900D01*
X007500Y000900D01*
X007500Y004903D01*
X007490Y004913D01*
X007257Y004680D01*
X006743Y004680D01*
X006500Y004923D01*
X006257Y004680D01*
X005743Y004680D01*
X005380Y005043D01*
X005380Y005251D01*
X005372Y005243D01*
X005131Y005143D01*
X004870Y005143D01*
X004628Y005243D01*
X004457Y005414D01*
X004455Y005411D01*
X004389Y005345D01*
X004313Y005290D01*
X004229Y005247D01*
X004140Y005218D01*
X004047Y005203D01*
X004000Y005203D01*
X004000Y005800D01*
X003403Y005800D01*
X003403Y005753D01*
X003418Y005660D01*
X003447Y005571D01*
X003490Y005487D01*
X003545Y005411D01*
X003611Y005345D01*
X003687Y005290D01*
X003771Y005247D01*
X003860Y005218D01*
X003953Y005203D01*
X004000Y005203D01*
X004000Y005800D01*
X004000Y005800D01*
X003403Y005800D01*
X003403Y005847D01*
X003418Y005940D01*
X003447Y006029D01*
X003490Y006113D01*
X003545Y006189D01*
X003611Y006255D01*
X003673Y006300D01*
X003611Y006345D01*
X003545Y006411D01*
X003490Y006487D01*
X003447Y006571D01*
X003418Y006660D01*
X003403Y006753D01*
X003403Y006800D01*
X004000Y006800D01*
X004000Y006800D01*
X003403Y006800D01*
X003403Y006847D01*
X003418Y006940D01*
X003447Y007029D01*
X003490Y007113D01*
X003545Y007189D01*
X003611Y007255D01*
X003673Y007300D01*
X003611Y007345D01*
X003545Y007411D01*
X003490Y007487D01*
X003447Y007571D01*
X003418Y007660D01*
X003403Y007753D01*
X003403Y007800D01*
X004000Y007800D01*
X004000Y007800D01*
X003403Y007800D01*
X003403Y007847D01*
X003418Y007940D01*
X003447Y008029D01*
X003490Y008113D01*
X003545Y008189D01*
X003611Y008255D01*
X003673Y008300D01*
X003611Y008345D01*
X003545Y008411D01*
X003490Y008487D01*
X003447Y008571D01*
X003418Y008660D01*
X003403Y008753D01*
X003403Y008800D01*
X004000Y008800D01*
X004000Y008800D01*
X003403Y008800D01*
X003403Y008847D01*
X003418Y008940D01*
X003447Y009029D01*
X003490Y009113D01*
X003545Y009189D01*
X003611Y009255D01*
X003673Y009300D01*
X003611Y009345D01*
X003545Y009411D01*
X003490Y009487D01*
X003447Y009571D01*
X003418Y009660D01*
X003403Y009753D01*
X003403Y009800D01*
X004000Y009800D01*
X004000Y009800D01*
X003403Y009800D01*
X003403Y009847D01*
X003418Y009940D01*
X003447Y010029D01*
X003490Y010113D01*
X003545Y010189D01*
X003611Y010255D01*
X003687Y010310D01*
X003771Y010353D01*
X003860Y010382D01*
X003953Y010397D01*
X004000Y010397D01*
X004000Y009800D01*
X004000Y009800D01*
X004000Y009800D01*
X004000Y008800D01*
X004000Y008800D01*
X004000Y007800D01*
X004000Y007800D01*
X004000Y006800D01*
X004000Y006800D01*
X004000Y005800D01*
X004000Y005800D01*
X004000Y005800D01*
X004000Y006203D01*
X004000Y006800D01*
X004000Y006800D01*
X004000Y007203D01*
X004000Y007800D01*
X004000Y007800D01*
X004000Y008203D01*
X004000Y008800D01*
X004000Y008800D01*
X004000Y009397D01*
X004000Y009800D01*
X004000Y010397D01*
X004047Y010397D01*
X004140Y010382D01*
X004229Y010353D01*
X004313Y010310D01*
X004389Y010255D01*
X004455Y010189D01*
X004457Y010186D01*
X004628Y010357D01*
X004870Y010457D01*
X005131Y010457D01*
X005372Y010357D01*
X005380Y010349D01*
X005380Y010557D01*
X005666Y010842D01*
X005440Y011068D01*
X005440Y011300D01*
X006000Y011300D01*
X006000Y011300D01*
X005440Y011300D01*
X005440Y011532D01*
X005768Y011860D01*
X006000Y011860D01*
X006000Y011300D01*
X006000Y011300D01*
X006000Y011860D01*
X006232Y011860D01*
X006560Y011532D01*
X006560Y011300D01*
X006000Y011300D01*
X006000Y011300D01*
X006560Y011300D01*
X006560Y011068D01*
X006335Y010842D01*
X006620Y010557D01*
X006620Y010043D01*
X006257Y009680D01*
X005743Y009680D01*
X005657Y009766D01*
X005657Y009669D01*
X005557Y009428D01*
X005429Y009300D01*
X005557Y009172D01*
X005657Y008931D01*
X005657Y008669D01*
X005557Y008428D01*
X005386Y008257D01*
X005389Y008255D01*
X005455Y008189D01*
X005511Y008113D01*
X005553Y008029D01*
X005582Y007940D01*
X005597Y007847D01*
X005597Y007800D01*
X005000Y007800D01*
X004000Y007800D01*
X004597Y007800D01*
X005000Y007800D01*
X005000Y007800D01*
X005597Y007800D01*
X005597Y007753D01*
X005582Y007660D01*
X005553Y007571D01*
X005511Y007487D01*
X005455Y007411D01*
X005389Y007345D01*
X005386Y007343D01*
X005557Y007172D01*
X005657Y006931D01*
X005657Y006669D01*
X005557Y006428D01*
X005429Y006300D01*
X005557Y006172D01*
X005657Y005931D01*
X005657Y005834D01*
X005743Y005920D01*
X006257Y005920D01*
X006500Y005677D01*
X006743Y005920D01*
X007257Y005920D01*
X007490Y005687D01*
X007500Y005697D01*
X007500Y005903D01*
X007455Y005949D01*
X007360Y006177D01*
X007360Y006423D01*
X007455Y006651D01*
X007500Y006697D01*
X007500Y007800D01*
X006940Y007800D01*
X007500Y007800D01*
X007500Y007800D01*
X007500Y008620D01*
X007456Y008620D01*
X007369Y008606D01*
X007285Y008579D01*
X007207Y008539D01*
X007135Y008487D01*
X007073Y008425D01*
X007021Y008354D01*
X006981Y008275D01*
X006954Y008191D01*
X006940Y008104D01*
X006940Y007800D01*
X006940Y007496D01*
X006954Y007409D01*
X006981Y007325D01*
X007021Y007246D01*
X007073Y007175D01*
X007135Y007113D01*
X007207Y007061D01*
X007285Y007021D01*
X007369Y006994D01*
X007456Y006980D01*
X007500Y006980D01*
X007500Y007800D01*
X007500Y007800D01*
X007500Y007800D01*
X007500Y008903D01*
X007455Y008949D01*
X007360Y009177D01*
X007360Y009423D01*
X007455Y009651D01*
X007500Y009697D01*
X007500Y009903D01*
X007455Y009949D01*
X007360Y010177D01*
X007360Y010423D01*
X007455Y010651D01*
X007500Y010697D01*
X007500Y015196D01*
X004228Y015196D01*
X004388Y014829D01*
X004460Y014300D01*
X004388Y013771D01*
X004388Y013771D01*
X004175Y013282D01*
X004175Y013282D01*
X003838Y012868D01*
X003838Y012868D01*
X003838Y012868D01*
X003402Y012560D01*
X003402Y012560D01*
X002899Y012381D01*
X002899Y012381D01*
X002366Y012345D01*
X002366Y012345D01*
X001844Y012453D01*
X001844Y012453D01*
X001600Y012579D01*
X001600Y003521D01*
X001844Y003647D01*
X001844Y003647D01*
X002366Y003755D01*
X002366Y003755D01*
X002899Y003719D01*
X002899Y003719D01*
X003402Y003540D01*
X003402Y003540D01*
X003838Y003232D01*
X003838Y003232D01*
X004175Y002818D01*
X004175Y002818D01*
X004388Y002329D01*
X004388Y002329D01*
X004460Y001800D01*
X004388Y001271D01*
X004388Y001271D01*
X004312Y001097D02*
X007500Y001097D01*
X007500Y001496D02*
X004418Y001496D01*
X004447Y001894D02*
X007500Y001894D01*
X007500Y002293D02*
X004393Y002293D01*
X004230Y002691D02*
X007500Y002691D01*
X007500Y003090D02*
X003954Y003090D01*
X003476Y003488D02*
X007500Y003488D01*
X007500Y003887D02*
X001600Y003887D01*
X001600Y004285D02*
X007500Y004285D01*
X007500Y004684D02*
X007261Y004684D01*
X006740Y004684D02*
X006261Y004684D01*
X005740Y004684D02*
X001600Y004684D01*
X001600Y005082D02*
X005380Y005082D01*
X005657Y005879D02*
X005702Y005879D01*
X005452Y006278D02*
X007360Y006278D01*
X007298Y005879D02*
X007500Y005879D01*
X006702Y005879D02*
X006298Y005879D01*
X005657Y006676D02*
X007479Y006676D01*
X007500Y007075D02*
X007500Y007075D01*
X007188Y007075D02*
X005598Y007075D01*
X005500Y007473D02*
X006944Y007473D01*
X006940Y007872D02*
X005593Y007872D01*
X005399Y008270D02*
X006980Y008270D01*
X007500Y008270D02*
X007500Y008270D01*
X007500Y008669D02*
X005657Y008669D01*
X005601Y009067D02*
X007406Y009067D01*
X007378Y009466D02*
X005573Y009466D01*
X006441Y009864D02*
X007500Y009864D01*
X007360Y010263D02*
X006620Y010263D01*
X006516Y010661D02*
X007464Y010661D01*
X007500Y011060D02*
X006552Y011060D01*
X006560Y011458D02*
X007500Y011458D01*
X007500Y011857D02*
X006236Y011857D01*
X006000Y011857D02*
X006000Y011857D01*
X005765Y011857D02*
X001600Y011857D01*
X001600Y011458D02*
X005440Y011458D01*
X006000Y011458D02*
X006000Y011458D01*
X005449Y011060D02*
X001600Y011060D01*
X001600Y010661D02*
X005484Y010661D01*
X004534Y010263D02*
X004379Y010263D01*
X004000Y010263D02*
X004000Y010263D01*
X003621Y010263D02*
X001600Y010263D01*
X001600Y009864D02*
X003406Y009864D01*
X004000Y009864D02*
X004000Y009864D01*
X004000Y009466D02*
X004000Y009466D01*
X004000Y009067D02*
X004000Y009067D01*
X003466Y009067D02*
X001600Y009067D01*
X001600Y009466D02*
X003506Y009466D01*
X003417Y008669D02*
X001600Y008669D01*
X001600Y008270D02*
X003632Y008270D01*
X004000Y008270D02*
X004000Y008270D01*
X004000Y008669D02*
X004000Y008669D01*
X004000Y007872D02*
X004000Y007872D01*
X004000Y007800D02*
X004000Y007800D01*
X004000Y007473D02*
X004000Y007473D01*
X003500Y007473D02*
X001600Y007473D01*
X001600Y007872D02*
X003407Y007872D01*
X003470Y007075D02*
X001600Y007075D01*
X001600Y006676D02*
X003416Y006676D01*
X004000Y006676D02*
X004000Y006676D01*
X004000Y007075D02*
X004000Y007075D01*
X004000Y006278D02*
X004000Y006278D01*
X003642Y006278D02*
X001600Y006278D01*
X001600Y005879D02*
X003408Y005879D01*
X003495Y005481D02*
X001600Y005481D01*
X004000Y005481D02*
X004000Y005481D01*
X004000Y005879D02*
X004000Y005879D01*
X005000Y007800D02*
X005000Y007800D01*
X007500Y007872D02*
X007500Y007872D01*
X007500Y007473D02*
X007500Y007473D01*
X010500Y007473D02*
X010500Y007473D01*
X010500Y007800D02*
X010500Y006980D01*
X010544Y006980D01*
X010631Y006994D01*
X010715Y007021D01*
X010794Y007061D01*
X010865Y007113D01*
X010927Y007175D01*
X010979Y007246D01*
X011000Y007288D01*
X011021Y007246D01*
X011073Y007175D01*
X011135Y007113D01*
X011207Y007061D01*
X011285Y007021D01*
X011369Y006994D01*
X011456Y006980D01*
X011500Y006980D01*
X011500Y007800D01*
X010940Y007800D01*
X010500Y007800D01*
X010500Y007800D01*
X010500Y005300D01*
X009000Y003800D01*
X009000Y001981D01*
X009065Y001990D01*
X009500Y001990D01*
X009500Y001300D01*
X009500Y001300D01*
X009500Y001990D01*
X009935Y001990D01*
X010025Y001978D01*
X010113Y001955D01*
X010196Y001920D01*
X010274Y001875D01*
X010346Y001820D01*
X010410Y001756D01*
X010465Y001684D01*
X010510Y001606D01*
X010545Y001522D01*
X010568Y001435D01*
X010580Y001345D01*
X010580Y001300D01*
X009500Y001300D01*
X009500Y001300D01*
X010580Y001300D01*
X010580Y001255D01*
X010568Y001165D01*
X010545Y001078D01*
X010510Y000994D01*
X010465Y000916D01*
X010453Y000900D01*
X012464Y000900D01*
X012360Y001151D01*
X012360Y001449D01*
X012474Y001725D01*
X012685Y001936D01*
X012961Y002050D01*
X014039Y002050D01*
X014315Y001936D01*
X014380Y001871D01*
X014380Y002057D01*
X014623Y002300D01*
X014380Y002543D01*
X014380Y003057D01*
X014743Y003420D01*
X015257Y003420D01*
X015620Y003057D01*
X015620Y002543D01*
X015377Y002300D01*
X015486Y002191D01*
X015735Y002440D01*
X016265Y002440D01*
X016640Y002065D01*
X016640Y001535D01*
X016265Y001160D01*
X015735Y001160D01*
X015486Y001409D01*
X015257Y001180D01*
X014743Y001180D01*
X014640Y001283D01*
X014640Y001151D01*
X014536Y000900D01*
X022354Y000900D01*
X022354Y001122D01*
X022309Y001140D01*
X022200Y001250D01*
X022140Y001393D01*
X022140Y001548D01*
X022200Y001691D01*
X022309Y001801D01*
X022453Y001861D01*
X023035Y001861D01*
X023068Y001847D01*
X023175Y001868D01*
X023327Y001838D01*
X023388Y001797D01*
X023449Y001838D01*
X023601Y001868D01*
X023754Y001838D01*
X023883Y001752D01*
X023969Y001623D01*
X023999Y001471D01*
X023969Y001319D01*
X023857Y001150D01*
X023969Y000982D01*
X023986Y000900D01*
X024270Y000900D01*
X024270Y015196D01*
X014456Y015196D01*
X014465Y015184D01*
X014510Y015106D01*
X014545Y015022D01*
X014568Y014935D01*
X014580Y014845D01*
X014580Y014800D01*
X013500Y014800D01*
X012420Y014800D01*
X012420Y014755D01*
X012432Y014665D01*
X012455Y014578D01*
X012490Y014494D01*
X012535Y014416D01*
X012590Y014344D01*
X012654Y014280D01*
X012726Y014225D01*
X012804Y014180D01*
X012888Y014145D01*
X012975Y014122D01*
X013065Y014110D01*
X013500Y014110D01*
X013500Y014800D01*
X013500Y014800D01*
X012420Y014800D01*
X012420Y014845D01*
X012432Y014935D01*
X012455Y015022D01*
X012490Y015106D01*
X012535Y015184D01*
X012544Y015196D01*
X010538Y015196D01*
X010640Y014949D01*
X010640Y014651D01*
X010526Y014375D01*
X010315Y014164D01*
X010039Y014050D01*
X009000Y014050D01*
X009000Y012300D01*
X009062Y012238D01*
X009243Y012420D01*
X009757Y012420D01*
X010120Y012057D01*
X010120Y011543D01*
X009939Y011362D01*
X010500Y010800D01*
X010500Y007800D01*
X010500Y007800D01*
X010500Y008620D01*
X010544Y008620D01*
X010631Y008606D01*
X010715Y008579D01*
X010794Y008539D01*
X010865Y008487D01*
X010927Y008425D01*
X010979Y008354D01*
X011000Y008312D01*
X011021Y008354D01*
X011073Y008425D01*
X011135Y008487D01*
X011207Y008539D01*
X011285Y008579D01*
X011369Y008606D01*
X011456Y008620D01*
X011500Y008620D01*
X011500Y007800D01*
X011500Y007800D01*
X010500Y007800D01*
X010500Y007800D01*
X010500Y007872D02*
X010500Y007872D01*
X010500Y008270D02*
X010500Y008270D01*
X010500Y008669D02*
X012349Y008669D01*
X012377Y008680D02*
X012149Y008586D01*
X011975Y008411D01*
X011961Y008378D01*
X011927Y008425D01*
X011865Y008487D01*
X011794Y008539D01*
X011715Y008579D01*
X011631Y008606D01*
X011544Y008620D01*
X011500Y008620D01*
X011500Y007800D01*
X011500Y007800D01*
X011500Y007800D01*
X011500Y006980D01*
X011544Y006980D01*
X011631Y006994D01*
X011715Y007021D01*
X011794Y007061D01*
X011865Y007113D01*
X011927Y007175D01*
X011961Y007222D01*
X011975Y007189D01*
X012149Y007014D01*
X012377Y006920D01*
X012624Y006920D01*
X012851Y007014D01*
X013026Y007189D01*
X013120Y007417D01*
X013120Y008183D01*
X013026Y008411D01*
X012851Y008586D01*
X012624Y008680D01*
X012377Y008680D01*
X012371Y008774D02*
X012546Y008949D01*
X012640Y009177D01*
X012640Y009423D01*
X012546Y009651D01*
X012397Y009800D01*
X012546Y009949D01*
X012640Y010177D01*
X012640Y010423D01*
X012546Y010651D01*
X012371Y010826D01*
X012144Y010920D01*
X011377Y010920D01*
X011149Y010826D01*
X010975Y010651D01*
X010880Y010423D01*
X010880Y010177D01*
X010975Y009949D01*
X011123Y009800D01*
X010975Y009651D01*
X010880Y009423D01*
X010880Y009177D01*
X010975Y008949D01*
X011149Y008774D01*
X011377Y008680D01*
X012144Y008680D01*
X012371Y008774D01*
X012651Y008669D02*
X022348Y008669D01*
X022244Y008712D02*
X022506Y008603D01*
X023494Y008603D01*
X023756Y008712D01*
X023957Y008912D01*
X024065Y009174D01*
X024065Y009457D01*
X023957Y009719D01*
X023756Y009920D01*
X023494Y010028D01*
X022506Y010028D01*
X022244Y009920D01*
X022044Y009719D01*
X021935Y009457D01*
X021935Y009174D01*
X022044Y008912D01*
X022244Y008712D01*
X021980Y009067D02*
X016120Y009067D01*
X016120Y009043D02*
X016120Y009557D01*
X015877Y009800D01*
X016120Y010043D01*
X016120Y010557D01*
X015757Y010920D01*
X015725Y010920D01*
X015774Y010940D01*
X015960Y011126D01*
X016060Y011369D01*
X016060Y012231D01*
X015960Y012474D01*
X015774Y012660D01*
X015532Y012760D01*
X015269Y012760D01*
X015026Y012660D01*
X014950Y012583D01*
X014874Y012660D01*
X014632Y012760D01*
X014369Y012760D01*
X014126Y012660D01*
X014050Y012583D01*
X013974Y012660D01*
X013732Y012760D01*
X013469Y012760D01*
X013226Y012660D01*
X013041Y012474D01*
X012942Y012235D01*
X012757Y012420D01*
X012468Y012420D01*
X012510Y012494D01*
X012545Y012578D01*
X012568Y012665D01*
X012580Y012755D01*
X012580Y012800D01*
X012580Y012845D01*
X012568Y012935D01*
X012545Y013022D01*
X012510Y013106D01*
X012465Y013184D01*
X012410Y013256D01*
X012346Y013320D01*
X012274Y013375D01*
X012196Y013420D01*
X012113Y013455D01*
X012025Y013478D01*
X011935Y013490D01*
X011500Y013490D01*
X011065Y013490D01*
X010975Y013478D01*
X010888Y013455D01*
X010804Y013420D01*
X010726Y013375D01*
X010654Y013320D01*
X010590Y013256D01*
X010535Y013184D01*
X010490Y013106D01*
X010455Y013022D01*
X010432Y012935D01*
X010420Y012845D01*
X010420Y012800D01*
X010420Y012755D01*
X010432Y012665D01*
X010455Y012578D01*
X010490Y012494D01*
X010535Y012416D01*
X010590Y012344D01*
X010654Y012280D01*
X010726Y012225D01*
X010804Y012180D01*
X010888Y012145D01*
X010975Y012122D01*
X011065Y012110D01*
X011500Y012110D01*
X011500Y012800D01*
X010420Y012800D01*
X011500Y012800D01*
X011500Y012800D01*
X011500Y013490D01*
X011500Y012800D01*
X011500Y012800D01*
X011500Y012800D01*
X011500Y012110D01*
X011933Y012110D01*
X011880Y012057D01*
X011880Y011543D01*
X012243Y011180D01*
X012757Y011180D01*
X012942Y011365D01*
X013041Y011126D01*
X013226Y010940D01*
X013276Y010920D01*
X013243Y010920D01*
X012880Y010557D01*
X012880Y010043D01*
X013243Y009680D01*
X013757Y009680D01*
X014000Y009923D01*
X014243Y009680D01*
X014757Y009680D01*
X015000Y009923D01*
X015123Y009800D01*
X014880Y009557D01*
X014880Y009043D01*
X015243Y008680D01*
X015757Y008680D01*
X016120Y009043D01*
X016120Y009466D02*
X021939Y009466D01*
X022188Y009864D02*
X015941Y009864D01*
X016120Y010263D02*
X017161Y010263D01*
X017243Y010180D02*
X017757Y010180D01*
X018120Y010543D01*
X018120Y011057D01*
X017964Y011213D01*
X018111Y011274D01*
X018286Y011449D01*
X018380Y011677D01*
X018380Y011923D01*
X018286Y012151D01*
X018137Y012300D01*
X018286Y012449D01*
X018380Y012677D01*
X018380Y012923D01*
X018286Y013151D01*
X018111Y013326D01*
X018079Y013339D01*
X018125Y013373D01*
X018187Y013435D01*
X018239Y013506D01*
X018279Y013585D01*
X018306Y013669D01*
X018320Y013756D01*
X018320Y013800D01*
X018320Y013844D01*
X018306Y013931D01*
X018279Y014015D01*
X018239Y014094D01*
X018187Y014165D01*
X018125Y014227D01*
X018054Y014279D01*
X017975Y014319D01*
X017891Y014346D01*
X017804Y014360D01*
X017500Y014360D01*
X017196Y014360D01*
X017109Y014346D01*
X017025Y014319D01*
X016947Y014279D01*
X016875Y014227D01*
X016813Y014165D01*
X016761Y014094D01*
X016721Y014015D01*
X016694Y013931D01*
X016680Y013844D01*
X016680Y013800D01*
X016680Y013756D01*
X016694Y013669D01*
X016721Y013585D01*
X016761Y013506D01*
X016813Y013435D01*
X016875Y013373D01*
X016922Y013339D01*
X016889Y013326D01*
X016715Y013151D01*
X016620Y012923D01*
X016620Y012677D01*
X016715Y012449D01*
X016863Y012300D01*
X016715Y012151D01*
X016620Y011923D01*
X016620Y011677D01*
X016715Y011449D01*
X016889Y011274D01*
X017037Y011213D01*
X016880Y011057D01*
X016880Y010543D01*
X017243Y010180D01*
X017840Y010263D02*
X024270Y010263D01*
X024270Y009864D02*
X023812Y009864D01*
X024062Y009466D02*
X024270Y009466D01*
X024270Y009067D02*
X024021Y009067D01*
X024270Y008669D02*
X023652Y008669D01*
X024270Y008270D02*
X017907Y008270D01*
X017757Y008420D02*
X017243Y008420D01*
X016880Y008057D01*
X016880Y007543D01*
X017243Y007180D01*
X017757Y007180D01*
X018120Y007543D01*
X018120Y008057D01*
X017757Y008420D01*
X017093Y008270D02*
X013084Y008270D01*
X013120Y007872D02*
X014695Y007872D01*
X014743Y007920D02*
X014380Y007557D01*
X014380Y007043D01*
X014623Y006800D01*
X014380Y006557D01*
X014380Y006043D01*
X014743Y005680D01*
X015147Y005680D01*
X015141Y005674D01*
X015040Y005431D01*
X015040Y005169D01*
X015141Y004926D01*
X015217Y004850D01*
X015141Y004774D01*
X015040Y004531D01*
X015040Y004269D01*
X015141Y004026D01*
X015326Y003840D01*
X015569Y003740D01*
X016432Y003740D01*
X016674Y003840D01*
X016860Y004026D01*
X016880Y004076D01*
X016880Y004043D01*
X017243Y003680D01*
X017757Y003680D01*
X018120Y004043D01*
X018120Y004557D01*
X017877Y004800D01*
X018120Y005043D01*
X018120Y005557D01*
X017757Y005920D01*
X017243Y005920D01*
X016900Y005577D01*
X016860Y005674D01*
X016784Y005750D01*
X016860Y005826D01*
X016960Y006069D01*
X016960Y006331D01*
X016860Y006574D01*
X016674Y006760D01*
X016432Y006860D01*
X015569Y006860D01*
X015391Y006786D01*
X015377Y006800D01*
X015620Y007043D01*
X015620Y007557D01*
X015257Y007920D01*
X014743Y007920D01*
X015306Y007872D02*
X016880Y007872D01*
X016950Y007473D02*
X015620Y007473D01*
X015620Y007075D02*
X024270Y007075D01*
X024270Y006676D02*
X020591Y006676D01*
X020585Y006691D02*
X020391Y006885D01*
X020137Y006990D01*
X019863Y006990D01*
X019609Y006885D01*
X019415Y006691D01*
X019310Y006437D01*
X019310Y006163D01*
X019415Y005909D01*
X019609Y005715D01*
X019863Y005610D01*
X020137Y005610D01*
X020391Y005715D01*
X020585Y005909D01*
X020690Y006163D01*
X020690Y006437D01*
X020585Y006691D01*
X020690Y006278D02*
X024270Y006278D01*
X024270Y005879D02*
X023766Y005879D01*
X023756Y005888D02*
X023494Y005997D01*
X022506Y005997D01*
X022244Y005888D01*
X022044Y005688D01*
X021935Y005426D01*
X021935Y005143D01*
X022044Y004881D01*
X022244Y004680D01*
X022506Y004572D01*
X023494Y004572D01*
X023756Y004680D01*
X023957Y004881D01*
X024065Y005143D01*
X024065Y005426D01*
X023957Y005688D01*
X023756Y005888D01*
X024043Y005481D02*
X024270Y005481D01*
X024270Y005082D02*
X024040Y005082D01*
X024270Y004684D02*
X023760Y004684D01*
X024270Y004285D02*
X018120Y004285D01*
X017964Y003887D02*
X022211Y003887D01*
X022244Y003920D02*
X022044Y003719D01*
X021935Y003457D01*
X021935Y003174D01*
X022044Y002912D01*
X022244Y002712D01*
X022506Y002603D01*
X023494Y002603D01*
X023756Y002712D01*
X023957Y002912D01*
X024065Y003174D01*
X024065Y003457D01*
X023957Y003719D01*
X023756Y003920D01*
X023494Y004028D01*
X022506Y004028D01*
X022244Y003920D01*
X021948Y003488D02*
X012554Y003488D01*
X012545Y003522D02*
X012510Y003606D01*
X012465Y003684D01*
X012410Y003756D01*
X012346Y003820D01*
X012274Y003875D01*
X012196Y003920D01*
X012113Y003955D01*
X012025Y003978D01*
X011935Y003990D01*
X011500Y003990D01*
X011065Y003990D01*
X010975Y003978D01*
X010888Y003955D01*
X010804Y003920D01*
X010726Y003875D01*
X010654Y003820D01*
X010590Y003756D01*
X010535Y003684D01*
X010490Y003606D01*
X010455Y003522D01*
X010432Y003435D01*
X010420Y003345D01*
X010420Y003300D01*
X010420Y003255D01*
X010432Y003165D01*
X010455Y003078D01*
X010490Y002994D01*
X010535Y002916D01*
X010590Y002844D01*
X010654Y002780D01*
X010726Y002725D01*
X010804Y002680D01*
X010888Y002645D01*
X010975Y002622D01*
X011065Y002610D01*
X011500Y002610D01*
X011500Y003300D01*
X010420Y003300D01*
X011500Y003300D01*
X011500Y003300D01*
X011500Y003300D01*
X011500Y003990D01*
X011500Y003300D01*
X011500Y003300D01*
X011500Y002610D01*
X011935Y002610D01*
X012025Y002622D01*
X012113Y002645D01*
X012196Y002680D01*
X012274Y002725D01*
X012346Y002780D01*
X012410Y002844D01*
X012465Y002916D01*
X012510Y002994D01*
X012545Y003078D01*
X012568Y003165D01*
X012580Y003255D01*
X012580Y003300D01*
X012580Y003345D01*
X012568Y003435D01*
X012545Y003522D01*
X012580Y003300D02*
X011500Y003300D01*
X011500Y003300D01*
X012580Y003300D01*
X012548Y003090D02*
X014413Y003090D01*
X014380Y002691D02*
X012215Y002691D01*
X011500Y002691D02*
X011500Y002691D01*
X011500Y003090D02*
X011500Y003090D01*
X011500Y003488D02*
X011500Y003488D01*
X011500Y003887D02*
X011500Y003887D01*
X010746Y003887D02*
X009087Y003887D01*
X009485Y004285D02*
X012680Y004285D01*
X012680Y004300D02*
X012680Y004256D01*
X012694Y004169D01*
X012721Y004085D01*
X012761Y004006D01*
X012813Y003935D01*
X012875Y003873D01*
X012947Y003821D01*
X013025Y003781D01*
X013109Y003754D01*
X013196Y003740D01*
X013500Y003740D01*
X013500Y004300D01*
X012680Y004300D01*
X013500Y004300D01*
X013500Y004300D01*
X013500Y004300D01*
X013500Y003740D01*
X013804Y003740D01*
X013891Y003754D01*
X013975Y003781D01*
X014054Y003821D01*
X014125Y003873D01*
X014187Y003935D01*
X014239Y004006D01*
X014279Y004085D01*
X014306Y004169D01*
X014320Y004256D01*
X014320Y004300D01*
X014320Y004344D01*
X014306Y004431D01*
X014279Y004515D01*
X014239Y004594D01*
X014187Y004665D01*
X014125Y004727D01*
X014079Y004761D01*
X014111Y004774D01*
X014286Y004949D01*
X014380Y005177D01*
X014380Y005423D01*
X014286Y005651D01*
X014137Y005800D01*
X014286Y005949D01*
X014380Y006177D01*
X014380Y006423D01*
X014286Y006651D01*
X014111Y006826D01*
X013884Y006920D01*
X013117Y006920D01*
X012889Y006826D01*
X012715Y006651D01*
X012630Y006447D01*
X012546Y006651D01*
X012371Y006826D01*
X012144Y006920D01*
X011377Y006920D01*
X011149Y006826D01*
X010975Y006651D01*
X010880Y006423D01*
X010880Y006177D01*
X010975Y005949D01*
X011149Y005774D01*
X011182Y005761D01*
X011135Y005727D01*
X011073Y005665D01*
X011021Y005594D01*
X010981Y005515D01*
X010954Y005431D01*
X010940Y005344D01*
X010940Y005300D01*
X010940Y005256D01*
X010954Y005169D01*
X010981Y005085D01*
X011021Y005006D01*
X011073Y004935D01*
X011135Y004873D01*
X011207Y004821D01*
X011285Y004781D01*
X011369Y004754D01*
X011456Y004740D01*
X011500Y004740D01*
X011500Y005300D01*
X010940Y005300D01*
X011500Y005300D01*
X011500Y005300D01*
X011500Y005300D01*
X011500Y004740D01*
X012064Y004740D01*
X012151Y004754D01*
X012235Y004781D01*
X012314Y004821D01*
X012385Y004873D01*
X012447Y004935D01*
X012499Y005006D01*
X012539Y005085D01*
X012566Y005169D01*
X012580Y005256D01*
X012580Y005300D01*
X012580Y005344D01*
X012566Y005431D01*
X012539Y005515D01*
X012499Y005594D01*
X012447Y005665D01*
X012385Y005727D01*
X012339Y005761D01*
X012371Y005774D01*
X012546Y005949D01*
X012630Y006153D01*
X012715Y005949D01*
X012863Y005800D01*
X012715Y005651D01*
X012620Y005423D01*
X012620Y005177D01*
X012715Y004949D01*
X012889Y004774D01*
X012922Y004761D01*
X012875Y004727D01*
X012813Y004665D01*
X012761Y004594D01*
X012721Y004515D01*
X012694Y004431D01*
X012680Y004344D01*
X012680Y004300D01*
X012862Y003887D02*
X012254Y003887D01*
X012832Y004684D02*
X009884Y004684D01*
X010282Y005082D02*
X010983Y005082D01*
X011500Y005082D02*
X011500Y005082D01*
X011500Y005300D02*
X011500Y005300D01*
X012580Y005300D01*
X011500Y005300D01*
X010970Y005481D02*
X010500Y005481D01*
X010500Y005879D02*
X011044Y005879D01*
X010880Y006278D02*
X010500Y006278D01*
X010500Y006676D02*
X010999Y006676D01*
X010812Y007075D02*
X011188Y007075D01*
X011500Y007075D02*
X011500Y007075D01*
X011812Y007075D02*
X012089Y007075D01*
X012521Y006676D02*
X012739Y006676D01*
X012912Y007075D02*
X014380Y007075D01*
X014261Y006676D02*
X014499Y006676D01*
X014380Y006278D02*
X014380Y006278D01*
X014216Y005879D02*
X014544Y005879D01*
X014357Y005481D02*
X015061Y005481D01*
X015076Y005082D02*
X014341Y005082D01*
X014169Y004684D02*
X015103Y004684D01*
X015040Y004285D02*
X014320Y004285D01*
X014320Y004300D02*
X013500Y004300D01*
X014320Y004300D01*
X014139Y003887D02*
X015280Y003887D01*
X015588Y003090D02*
X021970Y003090D01*
X022294Y002691D02*
X020585Y002691D01*
X020391Y002885D01*
X020137Y002990D01*
X019863Y002990D01*
X019609Y002885D01*
X019415Y002691D01*
X019310Y002437D01*
X019310Y002395D01*
X019265Y002440D01*
X018735Y002440D01*
X018360Y002065D01*
X018360Y001535D01*
X018735Y001160D01*
X019265Y001160D01*
X019640Y001535D01*
X019640Y001702D01*
X019863Y001610D01*
X020137Y001610D01*
X020391Y001715D01*
X020585Y001909D01*
X020690Y002163D01*
X020690Y002437D01*
X020585Y002691D01*
X020690Y002293D02*
X024270Y002293D01*
X024270Y002691D02*
X023706Y002691D01*
X024030Y003090D02*
X024270Y003090D01*
X024270Y003488D02*
X024053Y003488D01*
X024270Y003887D02*
X023790Y003887D01*
X022241Y004684D02*
X017994Y004684D01*
X018120Y005082D02*
X021960Y005082D01*
X021958Y005481D02*
X018120Y005481D01*
X017798Y005879D02*
X019445Y005879D01*
X019310Y006278D02*
X016960Y006278D01*
X016882Y005879D02*
X017202Y005879D01*
X016758Y006676D02*
X019409Y006676D01*
X020555Y005879D02*
X022235Y005879D01*
X024270Y007473D02*
X018050Y007473D01*
X018120Y007872D02*
X024270Y007872D01*
X023494Y010572D02*
X022506Y010572D01*
X022244Y010680D01*
X022044Y010881D01*
X021935Y011143D01*
X021935Y011426D01*
X022044Y011688D01*
X022244Y011888D01*
X022506Y011997D01*
X023494Y011997D01*
X023756Y011888D01*
X023957Y011688D01*
X024065Y011426D01*
X024065Y011143D01*
X023957Y010881D01*
X023756Y010680D01*
X023494Y010572D01*
X023710Y010661D02*
X024270Y010661D01*
X024270Y011060D02*
X024031Y011060D01*
X024052Y011458D02*
X024270Y011458D01*
X024270Y011857D02*
X023788Y011857D01*
X024270Y012255D02*
X018182Y012255D01*
X018371Y012654D02*
X024270Y012654D01*
X024270Y013052D02*
X018327Y013052D01*
X018199Y013451D02*
X022427Y013451D01*
X022453Y013440D02*
X022608Y013440D01*
X022744Y013496D01*
X022880Y013440D01*
X023035Y013440D01*
X023068Y013454D01*
X023175Y013432D01*
X023327Y013463D01*
X023388Y013504D01*
X023449Y013463D01*
X023601Y013432D01*
X023754Y013462D01*
X023883Y013549D01*
X023969Y013677D01*
X023999Y013830D01*
X023969Y013982D01*
X023857Y014150D01*
X023969Y014319D01*
X023999Y014471D01*
X023969Y014623D01*
X023883Y014752D01*
X023754Y014838D01*
X023601Y014868D01*
X023449Y014838D01*
X023388Y014797D01*
X023327Y014838D01*
X023175Y014868D01*
X023023Y014838D01*
X023007Y014828D01*
X022928Y014861D01*
X022453Y014861D01*
X022309Y014801D01*
X022200Y014691D01*
X022140Y014548D01*
X022140Y013966D01*
X022140Y013752D01*
X022200Y013609D01*
X022309Y013499D01*
X022453Y013440D01*
X022633Y013451D02*
X022854Y013451D01*
X023060Y013451D02*
X023083Y013451D01*
X023266Y013451D02*
X023511Y013451D01*
X023693Y013451D02*
X024270Y013451D01*
X024270Y013849D02*
X023996Y013849D01*
X023922Y014248D02*
X024270Y014248D01*
X024270Y014646D02*
X023954Y014646D01*
X024270Y015045D02*
X014536Y015045D01*
X014580Y014800D02*
X013500Y014800D01*
X013500Y014800D01*
X013500Y014110D01*
X013935Y014110D01*
X014025Y014122D01*
X014113Y014145D01*
X014196Y014180D01*
X014274Y014225D01*
X014346Y014280D01*
X014410Y014344D01*
X014465Y014416D01*
X014510Y014494D01*
X014545Y014578D01*
X014568Y014665D01*
X014580Y014755D01*
X014580Y014800D01*
X014563Y014646D02*
X022181Y014646D01*
X022140Y014248D02*
X018097Y014248D01*
X018319Y013849D02*
X022140Y013849D01*
X022212Y011857D02*
X018380Y011857D01*
X018290Y011458D02*
X021949Y011458D01*
X021970Y011060D02*
X018118Y011060D01*
X018120Y010661D02*
X022291Y010661D01*
X018320Y013800D02*
X017500Y013800D01*
X016680Y013800D01*
X017500Y013800D01*
X017500Y013800D01*
X017500Y014360D01*
X017500Y013800D01*
X017500Y013800D01*
X018320Y013800D01*
X017500Y013800D02*
X017500Y013800D01*
X017500Y013849D02*
X017500Y013849D01*
X017500Y014248D02*
X017500Y014248D01*
X016903Y014248D02*
X014304Y014248D01*
X013500Y014248D02*
X013500Y014248D01*
X013500Y014646D02*
X013500Y014646D01*
X013500Y014800D02*
X013500Y014800D01*
X012697Y014248D02*
X010398Y014248D01*
X010638Y014646D02*
X012437Y014646D01*
X012465Y015045D02*
X010601Y015045D01*
X009000Y013849D02*
X016681Y013849D01*
X016802Y013451D02*
X012123Y013451D01*
X012533Y013052D02*
X016674Y013052D01*
X016630Y012654D02*
X015780Y012654D01*
X016050Y012255D02*
X016818Y012255D01*
X016620Y011857D02*
X016060Y011857D01*
X016060Y011458D02*
X016711Y011458D01*
X016883Y011060D02*
X015893Y011060D01*
X016016Y010661D02*
X016880Y010661D01*
X015059Y009864D02*
X014941Y009864D01*
X014880Y009466D02*
X012623Y009466D01*
X012595Y009067D02*
X014880Y009067D01*
X014059Y009864D02*
X013941Y009864D01*
X013059Y009864D02*
X012461Y009864D01*
X012640Y010263D02*
X012880Y010263D01*
X012984Y010661D02*
X012536Y010661D01*
X013107Y011060D02*
X010241Y011060D01*
X010500Y010661D02*
X010984Y010661D01*
X010880Y010263D02*
X010500Y010263D01*
X010500Y009864D02*
X011059Y009864D01*
X010898Y009466D02*
X010500Y009466D01*
X010500Y009067D02*
X010926Y009067D01*
X011500Y008270D02*
X011500Y008270D01*
X011500Y007872D02*
X011500Y007872D01*
X011500Y007473D02*
X011500Y007473D01*
X010500Y007075D02*
X010500Y007075D01*
X012476Y005879D02*
X012784Y005879D01*
X012644Y005481D02*
X012550Y005481D01*
X012538Y005082D02*
X012659Y005082D01*
X013500Y004300D02*
X013500Y004300D01*
X013500Y004285D02*
X013500Y004285D01*
X013500Y003887D02*
X013500Y003887D01*
X015620Y002691D02*
X019415Y002691D01*
X018588Y002293D02*
X016413Y002293D01*
X016640Y001894D02*
X018360Y001894D01*
X018400Y001496D02*
X016601Y001496D01*
X015588Y002293D02*
X015385Y002293D01*
X014616Y002293D02*
X009000Y002293D01*
X009000Y002691D02*
X010785Y002691D01*
X010452Y003090D02*
X009000Y003090D01*
X009000Y003488D02*
X010446Y003488D01*
X010241Y001894D02*
X012644Y001894D01*
X012379Y001496D02*
X010552Y001496D01*
X010550Y001097D02*
X012383Y001097D01*
X014357Y001894D02*
X014380Y001894D01*
X014618Y001097D02*
X022354Y001097D01*
X022140Y001496D02*
X019601Y001496D01*
X020570Y001894D02*
X024270Y001894D01*
X024270Y001496D02*
X023995Y001496D01*
X023893Y001097D02*
X024270Y001097D01*
X017037Y003887D02*
X016720Y003887D01*
X014380Y007473D02*
X013120Y007473D01*
X011965Y011458D02*
X010035Y011458D01*
X010120Y011857D02*
X011880Y011857D01*
X011500Y012255D02*
X011500Y012255D01*
X011500Y012654D02*
X011500Y012654D01*
X011500Y012800D02*
X011500Y012800D01*
X012580Y012800D01*
X011500Y012800D01*
X011500Y013052D02*
X011500Y013052D01*
X011500Y013451D02*
X011500Y013451D01*
X010878Y013451D02*
X009000Y013451D01*
X009000Y013052D02*
X010468Y013052D01*
X010435Y012654D02*
X009000Y012654D01*
X009045Y012255D02*
X009078Y012255D01*
X009922Y012255D02*
X010687Y012255D01*
X012565Y012654D02*
X013220Y012654D01*
X012950Y012255D02*
X012922Y012255D01*
X013980Y012654D02*
X014120Y012654D01*
X014880Y012654D02*
X015020Y012654D01*
X007500Y012654D02*
X003535Y012654D01*
X003988Y013052D02*
X007500Y013052D01*
X007500Y013451D02*
X004248Y013451D01*
X004398Y013849D02*
X007500Y013849D01*
X007500Y014248D02*
X004453Y014248D01*
X004413Y014646D02*
X007500Y014646D01*
X007500Y015045D02*
X004294Y015045D01*
X001600Y012255D02*
X007500Y012255D01*
X009500Y001894D02*
X009500Y001894D01*
X009500Y001496D02*
X009500Y001496D01*
M02*
