G75*
%MOIN*%
%OFA0B0*%
%FSLAX24Y24*%
%IPPOS*%
%LPD*%
%AMOC8*
5,1,8,0,0,1.08239X$1,22.5*
%
%ADD10C,0.0000*%
D10*
X001000Y000300D02*
X001000Y015796D01*
X024870Y015796D01*
X024870Y000300D01*
X001000Y000300D01*
X001870Y001800D02*
X001872Y001850D01*
X001878Y001900D01*
X001888Y001949D01*
X001902Y001997D01*
X001919Y002044D01*
X001940Y002089D01*
X001965Y002133D01*
X001993Y002174D01*
X002025Y002213D01*
X002059Y002250D01*
X002096Y002284D01*
X002136Y002314D01*
X002178Y002341D01*
X002222Y002365D01*
X002268Y002386D01*
X002315Y002402D01*
X002363Y002415D01*
X002413Y002424D01*
X002462Y002429D01*
X002513Y002430D01*
X002563Y002427D01*
X002612Y002420D01*
X002661Y002409D01*
X002709Y002394D01*
X002755Y002376D01*
X002800Y002354D01*
X002843Y002328D01*
X002884Y002299D01*
X002923Y002267D01*
X002959Y002232D01*
X002991Y002194D01*
X003021Y002154D01*
X003048Y002111D01*
X003071Y002067D01*
X003090Y002021D01*
X003106Y001973D01*
X003118Y001924D01*
X003126Y001875D01*
X003130Y001825D01*
X003130Y001775D01*
X003126Y001725D01*
X003118Y001676D01*
X003106Y001627D01*
X003090Y001579D01*
X003071Y001533D01*
X003048Y001489D01*
X003021Y001446D01*
X002991Y001406D01*
X002959Y001368D01*
X002923Y001333D01*
X002884Y001301D01*
X002843Y001272D01*
X002800Y001246D01*
X002755Y001224D01*
X002709Y001206D01*
X002661Y001191D01*
X002612Y001180D01*
X002563Y001173D01*
X002513Y001170D01*
X002462Y001171D01*
X002413Y001176D01*
X002363Y001185D01*
X002315Y001198D01*
X002268Y001214D01*
X002222Y001235D01*
X002178Y001259D01*
X002136Y001286D01*
X002096Y001316D01*
X002059Y001350D01*
X002025Y001387D01*
X001993Y001426D01*
X001965Y001467D01*
X001940Y001511D01*
X001919Y001556D01*
X001902Y001603D01*
X001888Y001651D01*
X001878Y001700D01*
X001872Y001750D01*
X001870Y001800D01*
X001870Y014300D02*
X001872Y014350D01*
X001878Y014400D01*
X001888Y014449D01*
X001902Y014497D01*
X001919Y014544D01*
X001940Y014589D01*
X001965Y014633D01*
X001993Y014674D01*
X002025Y014713D01*
X002059Y014750D01*
X002096Y014784D01*
X002136Y014814D01*
X002178Y014841D01*
X002222Y014865D01*
X002268Y014886D01*
X002315Y014902D01*
X002363Y014915D01*
X002413Y014924D01*
X002462Y014929D01*
X002513Y014930D01*
X002563Y014927D01*
X002612Y014920D01*
X002661Y014909D01*
X002709Y014894D01*
X002755Y014876D01*
X002800Y014854D01*
X002843Y014828D01*
X002884Y014799D01*
X002923Y014767D01*
X002959Y014732D01*
X002991Y014694D01*
X003021Y014654D01*
X003048Y014611D01*
X003071Y014567D01*
X003090Y014521D01*
X003106Y014473D01*
X003118Y014424D01*
X003126Y014375D01*
X003130Y014325D01*
X003130Y014275D01*
X003126Y014225D01*
X003118Y014176D01*
X003106Y014127D01*
X003090Y014079D01*
X003071Y014033D01*
X003048Y013989D01*
X003021Y013946D01*
X002991Y013906D01*
X002959Y013868D01*
X002923Y013833D01*
X002884Y013801D01*
X002843Y013772D01*
X002800Y013746D01*
X002755Y013724D01*
X002709Y013706D01*
X002661Y013691D01*
X002612Y013680D01*
X002563Y013673D01*
X002513Y013670D01*
X002462Y013671D01*
X002413Y013676D01*
X002363Y013685D01*
X002315Y013698D01*
X002268Y013714D01*
X002222Y013735D01*
X002178Y013759D01*
X002136Y013786D01*
X002096Y013816D01*
X002059Y013850D01*
X002025Y013887D01*
X001993Y013926D01*
X001965Y013967D01*
X001940Y014011D01*
X001919Y014056D01*
X001902Y014103D01*
X001888Y014151D01*
X001878Y014200D01*
X001872Y014250D01*
X001870Y014300D01*
M02*
