G75*
%MOIN*%
%OFA0B0*%
%FSLAX24Y24*%
%IPPOS*%
%LPD*%
%AMOC8*
5,1,8,0,0,1.08239X$1,22.5*
%
%ADD10C,0.0785*%
%ADD11OC8,0.0600*%
%ADD12C,0.0600*%
%ADD13C,0.0680*%
%ADD14OC8,0.0640*%
%ADD15C,0.0860*%
%ADD16C,0.1340*%
%ADD17C,0.0674*%
%ADD18C,0.0740*%
D10*
X022648Y003316D02*
X023353Y003316D01*
X023353Y005284D02*
X022648Y005284D01*
X022648Y009316D02*
X023353Y009316D01*
X023353Y011284D02*
X022648Y011284D01*
D11*
X017500Y010800D03*
X015500Y010300D03*
X014500Y010300D03*
X013500Y010300D03*
X015500Y009300D03*
X017500Y007800D03*
X015000Y007300D03*
X015000Y006300D03*
X017500Y005300D03*
X017500Y004300D03*
X015000Y002800D03*
X015000Y001800D03*
X007000Y005300D03*
X006000Y005300D03*
X006000Y010300D03*
X006000Y011300D03*
X009500Y011800D03*
X012500Y011800D03*
D12*
X012020Y010300D02*
X011500Y010300D01*
X011500Y009300D02*
X012020Y009300D01*
X012500Y008060D02*
X012500Y007540D01*
X011500Y007540D02*
X011500Y008060D01*
X010500Y008060D02*
X010500Y007540D01*
X009500Y007540D02*
X009500Y008060D01*
X008500Y008060D02*
X008500Y007540D01*
X007500Y007540D02*
X007500Y008060D01*
X007980Y009300D02*
X008500Y009300D01*
X008500Y010300D02*
X007980Y010300D01*
X007980Y006300D02*
X008500Y006300D01*
X008500Y005300D02*
X007980Y005300D01*
X011500Y005300D02*
X012020Y005300D01*
X013240Y005300D02*
X013760Y005300D01*
X013760Y004300D02*
X013240Y004300D01*
X013240Y006300D02*
X013760Y006300D01*
X012020Y006300D02*
X011500Y006300D01*
X017240Y011800D02*
X017760Y011800D01*
X017760Y012800D02*
X017240Y012800D01*
X017240Y013800D02*
X017760Y013800D01*
D13*
X015400Y012100D02*
X015400Y011500D01*
X014500Y011500D02*
X014500Y012100D01*
X013600Y012100D02*
X013600Y011500D01*
X015700Y006200D02*
X016300Y006200D01*
X016300Y005300D02*
X015700Y005300D01*
X015700Y004400D02*
X016300Y004400D01*
D14*
X016000Y001800D03*
X019000Y001800D03*
D15*
X013890Y001300D02*
X013110Y001300D01*
X011890Y003300D02*
X011110Y003300D01*
X009890Y001300D02*
X009110Y001300D01*
X011110Y012800D02*
X011890Y012800D01*
X013110Y014800D02*
X013890Y014800D01*
X009890Y014800D02*
X009110Y014800D01*
D16*
X002500Y001800D03*
X002500Y014300D03*
D17*
X004000Y009800D03*
X005000Y009800D03*
X005000Y008800D03*
X004000Y008800D03*
X004000Y007800D03*
X005000Y007800D03*
X005000Y006800D03*
X004000Y006800D03*
X004000Y005800D03*
X005000Y005800D03*
D18*
X020000Y006300D03*
X020000Y002300D03*
M02*
