%
M48
M72
T01C0.0320
T02C0.0360
T03C0.0394
T04C0.0400
T05C0.0440
T06C0.0470
T07C0.0520
T08C0.1260
%
T01
X6000Y5300
X7000Y5300
X8500Y5300
X8500Y6300
X8500Y7800
X7500Y7800
X9500Y7800
X10500Y7800
X11500Y7800
X12500Y7800
X11500Y6300
X11500Y5300
X13500Y5300
X13500Y4300
X15000Y2800
X15000Y1800
X17500Y4300
X17500Y5300
X15000Y6300
X15000Y7300
X13500Y6300
X17500Y7800
X15500Y9300
X15500Y10300
X14500Y10300
X13500Y10300
X11500Y10300
X11500Y9300
X8500Y9300
X8500Y10300
X9500Y11800
X12500Y11800
X17500Y11800
X17500Y10800
X17500Y12800
X17500Y13800
X6000Y11300
X6000Y10300
T02
X16000Y1800
X19000Y1800
T03
X5000Y5800
X4000Y5800
X4000Y6800
X5000Y6800
X5000Y7800
X4000Y7800
X4000Y8800
X5000Y8800
X5000Y9800
X4000Y9800
T04
X13600Y11800
X14500Y11800
X15400Y11800
X16000Y6200
X16000Y5300
X16000Y4400
T05
X20000Y6300
X20000Y2300
T06
X23000Y3316
X23000Y5284
X23000Y9316
X23000Y11284
T07
X13500Y14800
X11500Y12800
X9500Y14800
X11500Y3300
X9500Y1300
X13500Y1300
T08
X2500Y1800
X2500Y14300
M30
